<svg width="679" height="726" viewBox="0 0 679 726" fill="none" xmlns="http://www.w3.org/2000/svg">
<path d="M160.698 1L254.753 82.1758H301.78L371.341 1L434.045 39.1428L528.1 13.7143L518.302 154.549H581.006L599.621 245.505L556.512 346.241L643.709 383.406L678 640.626H492.829L468.336 703.219H333.132L270.428 659.208L126.407 724.736L79.3792 677.791V555.538L32.3517 490.011L79.3792 383.406V276.802L1 245.505V82.1758L160.698 1Z" stroke="#C0F7B7" stroke-width="0.5"/>
<path d="M304.115 332.831L321.124 324.144H343.559L359.212 340.575L363.281 361.089L372.569 365.066L376.221 392.591H356.499L332.811 394.58L317.471 401.592L312.463 396.568V383.486V353.658L304.115 350.309V332.831Z" stroke="#C0F7B7" stroke-width="0.5"/>
<path d="M172.384 25.857L259.858 100.454H304.994L369.806 26.1549L428.288 61.9956L515.265 39.3121L506.378 170.103L564.972 170.409L582.296 255.427L542.644 349.473L622.374 383.778L653.269 621.212L481.431 621.288L457.911 679.143L331.927 679.683L273.854 638.864L140.718 699.158L97.3085 655.321V541.969L53.8985 479.188L96.9874 380.655L96.6663 282.122L24.3163 252.561V101.123L172.384 25.857Z" stroke="#C0F7B7" stroke-width="0.5"/>
<path d="M184.07 50.7147L264.964 118.734H308.208L368.272 51.3104L422.532 84.8491L502.431 64.9105L494.453 185.657L548.939 186.268L564.971 265.349L528.776 352.704L601.04 384.151L628.539 601.799L470.034 601.952L447.486 655.068L330.723 656.147L277.281 618.52L155.031 673.58L115.238 632.851V528.4L75.446 468.365L114.596 377.904L113.954 287.443L47.6333 259.616V120.07L184.07 50.7147Z" stroke="#C0F7B7" stroke-width="0.5"/>
<path d="M195.757 75.5718L270.069 137.012H311.421L366.736 76.4654L416.776 107.702L489.595 90.5085L482.529 201.21L532.905 202.128L547.646 275.27L514.907 355.935L579.706 384.524L603.808 582.385L458.635 582.614L437.061 630.992L329.518 632.611L280.707 598.176L169.343 648.003L133.168 610.381V514.831L96.9928 457.542L132.205 375.153L131.241 292.763L70.9497 266.672V139.017L195.757 75.5718Z" stroke="#C0F7B7" stroke-width="0.5"/>
<path d="M207.443 100.429L275.174 155.291H314.635L365.201 101.62L411.019 130.555L476.76 116.106L470.604 216.763L516.871 217.987L530.321 285.191L501.038 359.166L558.371 384.896L579.077 562.971L447.237 563.277L426.636 606.917L328.313 609.074L284.133 577.832L183.655 622.424L151.097 587.911V501.262L118.54 446.719L149.813 372.401L148.528 298.083L94.266 273.727V157.964L207.443 100.429Z" stroke="#C0F7B7" stroke-width="0.5"/>
<path d="M219.129 125.286L280.28 173.57H317.849L363.666 126.776L405.263 153.408L463.925 141.705L458.679 232.317L500.838 233.847L512.995 295.113L487.169 362.398L537.036 385.269L554.345 543.558L435.839 543.94L416.211 582.841L327.108 585.538L287.558 557.489L197.966 596.847L169.026 565.442V487.694L140.086 435.897L167.421 369.65L165.816 303.404L117.582 280.783V176.911L219.129 125.286Z" stroke="#C0F7B7" stroke-width="0.5"/>
<path d="M230.815 150.143L285.385 191.849H321.063L362.131 151.931L399.507 176.261L451.091 167.303L446.754 247.871L484.804 249.706L495.671 305.034L473.301 365.629L515.702 385.641L529.615 524.144L424.441 524.603L405.786 558.766L325.904 562.002L290.985 537.144L212.279 571.269L186.956 542.972V474.125L161.634 425.074L185.03 366.899L183.103 308.724L140.899 287.838V195.858L230.815 150.143Z" stroke="#C0F7B7" stroke-width="0.5"/>
<path d="M242.501 175.001L290.491 210.128H324.276L360.596 177.086L393.75 199.114L438.256 192.9L434.83 263.424L468.77 265.566L478.345 314.956L459.432 368.86L494.367 386.013L504.884 504.73L413.043 505.265L395.361 534.69L324.699 538.466L294.411 516.8L226.591 545.691L204.886 520.502V460.556L183.181 414.251L202.638 364.147L200.39 314.044L164.215 294.894V214.805L242.501 175.001Z" stroke="#C0F7B7" stroke-width="0.5"/>
<path d="M254.187 199.858L295.596 228.406H327.49L359.061 202.241L387.993 221.967L425.421 218.498L422.905 278.977L452.737 281.425L461.02 324.877L445.564 372.091L473.032 386.385L480.153 485.316L401.645 485.928L384.936 510.614L323.494 514.929L297.836 496.456L240.902 520.113L222.815 498.032V446.987L204.727 403.428L220.246 361.396L217.678 319.364L187.532 301.949V233.752L254.187 199.858Z" stroke="#C0F7B7" stroke-width="0.5"/>
<path d="M265.874 224.715L300.701 246.685H330.704L357.525 227.396L382.237 244.82L412.586 244.097L410.98 294.531L436.703 297.285L443.695 334.799L431.695 375.323L451.698 386.758L455.422 465.903L390.247 466.591L374.511 486.539L322.29 491.393L301.262 476.113L255.214 494.536L240.744 475.563V433.418L226.274 392.606L237.854 358.645L234.965 324.685L210.848 309.005V252.699L265.874 224.715Z" stroke="#C0F7B7" stroke-width="0.5"/>
<path d="M277.56 249.572L305.807 264.964H333.918L355.991 252.551L376.481 267.673L399.751 269.695L399.056 310.085L420.67 313.144L426.37 344.72L417.827 378.554L430.364 387.13L430.691 446.489L378.849 447.254L364.086 462.463L321.085 467.857L304.689 455.768L269.527 468.958L258.674 453.093V419.849L247.822 381.783L255.463 355.894L252.253 330.005L234.165 316.06V271.646L277.56 249.572Z" stroke="#C0F7B7" stroke-width="0.5"/>
<path d="M289.246 274.429L310.913 283.243H337.132L354.456 277.706L370.725 290.526L386.916 295.292L387.131 325.638L404.636 329.003L409.045 354.642L403.958 381.785L409.029 387.503L405.96 427.075L367.451 427.916L353.661 438.387L319.881 444.321L308.115 435.424L283.839 443.38L276.604 430.623V406.28L269.369 370.96L273.072 353.142L269.54 335.325L257.481 323.115V290.593L289.246 274.429Z" stroke="#C0F7B7" stroke-width="0.5"/>
<path d="M300.933 299.287L316.018 301.522H340.345L352.92 302.861L364.968 313.379L374.081 320.891L375.206 341.192L388.602 344.863L391.72 364.564L390.089 385.017L387.694 387.875L381.229 407.662L356.053 408.579L343.236 414.312L318.676 420.785L311.541 415.081L298.15 417.803L294.533 408.153V392.711L290.915 360.137L290.68 350.391L286.827 340.645L280.798 330.171V309.54L300.933 299.287Z" stroke="#C0F7B7" stroke-width="0.5"/>
</svg>
